<svg width="33" height="34" viewBox="0 0 33 34" fill="none" xmlns="http://www.w3.org/2000/svg">
<path d="M2.75 16.9332H5.5C5.49778 15.4879 5.78043 14.0562 6.3318 12.7201C6.88317 11.3841 7.69245 10.1697 8.71338 9.1466C9.71387 8.14229 10.9013 7.34352 12.2086 6.79535C14.9029 5.67601 17.9283 5.65577 20.6374 6.73898C20.6646 7.62902 21.0374 8.47345 21.6769 9.09314C22.3163 9.71282 23.172 10.059 24.0625 10.0582C25.9683 10.0582 27.5 8.52648 27.5 6.62073C27.5 4.71498 25.9683 3.18323 24.0625 3.18323C23.1151 3.18323 22.2585 3.56273 21.6384 4.1801C18.2958 2.84223 14.4568 2.86285 11.1403 4.26123C9.50509 4.94744 8.01977 5.94653 6.76775 7.20235C5.51158 8.45384 4.51203 9.9387 3.82525 11.5735C3.11172 13.2701 2.74608 15.0927 2.75 16.9332ZM26.6379 21.226C26.0865 22.535 25.2945 23.712 24.2866 24.7199C23.2788 25.7277 22.1018 26.5197 20.7914 27.0711C18.0971 28.1904 15.0717 28.2107 12.3626 27.1275C12.3354 26.2374 11.9626 25.393 11.3231 24.7733C10.6837 24.1536 9.82795 23.8075 8.9375 23.8082C7.03175 23.8082 5.5 25.34 5.5 27.2457C5.5 29.1515 7.03175 30.6832 8.9375 30.6832C9.88488 30.6832 10.7415 30.3037 11.3616 29.6864C12.9948 30.3446 14.7392 30.683 16.5 30.6832C19.2041 30.689 21.8496 29.8957 24.1044 28.403C26.3592 26.9102 28.1226 24.7846 29.1734 22.293C29.8874 20.5965 30.2535 18.7739 30.25 16.9332H27.5C27.5032 18.4075 27.21 19.8673 26.6379 21.226Z" fill="#59A961"/>
<path d="M16.5 10.6935C13.0598 10.6935 10.2603 13.493 10.2603 16.9332C10.2603 20.3735 13.0598 23.173 16.5 23.173C19.9403 23.173 22.7398 20.3735 22.7398 16.9332C22.7398 13.493 19.9403 10.6935 16.5 10.6935ZM16.5 20.423C14.5764 20.423 13.0103 18.8569 13.0103 16.9332C13.0103 15.0096 14.5764 13.4435 16.5 13.4435C18.4236 13.4435 19.9898 15.0096 19.9898 16.9332C19.9898 18.8569 18.4236 20.423 16.5 20.423Z" fill="#59A961"/>
</svg>
