<svg width="36" height="37" viewBox="0 0 36 37" fill="none" xmlns="http://www.w3.org/2000/svg">
<path d="M15 6.65277C14.3038 6.65277 13.6361 6.92933 13.1438 7.42162C12.6516 7.9139 12.375 8.58158 12.375 9.27777C12.375 9.97396 12.6516 10.6416 13.1438 11.1339C13.6361 11.6262 14.3038 11.9028 15 11.9028C15.6962 11.9028 16.3639 11.6262 16.8562 11.1339C17.3484 10.6416 17.625 9.97396 17.625 9.27777C17.625 8.58158 17.3484 7.9139 16.8562 7.42162C16.3639 6.92933 15.6962 6.65277 15 6.65277ZM10.125 9.27777C10.125 7.98484 10.6386 6.74487 11.5529 5.83063C12.4671 4.91639 13.7071 4.40277 15 4.40277C16.2929 4.40277 17.5329 4.91639 18.4471 5.83063C19.3614 6.74487 19.875 7.98484 19.875 9.27777C19.875 10.5707 19.3614 11.8107 18.4471 12.7249C17.5329 13.6392 16.2929 14.1528 15 14.1528C13.7071 14.1528 12.4671 13.6392 11.5529 12.7249C10.6386 11.8107 10.125 10.5707 10.125 9.27777ZM4.5 9.65277C3.90326 9.65277 3.33097 9.88982 2.90901 10.3118C2.48705 10.7337 2.25 11.306 2.25 11.9028C2.25 12.4995 2.48705 13.0718 2.90901 13.4938C3.33097 13.9157 3.90326 14.1528 4.5 14.1528C5.09674 14.1528 5.66903 13.9157 6.09099 13.4938C6.51295 13.0718 6.75 12.4995 6.75 11.9028C6.75 11.306 6.51295 10.7337 6.09099 10.3118C5.66903 9.88982 5.09674 9.65277 4.5 9.65277ZM0 11.9028C0 10.7093 0.474106 9.5647 1.31802 8.72079C2.16193 7.87688 3.30653 7.40277 4.5 7.40277C5.69347 7.40277 6.83807 7.87688 7.68198 8.72079C8.52589 9.5647 9 10.7093 9 11.9028C9 13.0962 8.52589 14.2408 7.68198 15.0848C6.83807 15.9287 5.69347 16.4028 4.5 16.4028C3.30653 16.4028 2.16193 15.9287 1.31802 15.0848C0.474106 14.2408 0 13.0962 0 11.9028ZM23.25 11.9028C23.25 11.306 23.4871 10.7337 23.909 10.3118C24.331 9.88982 24.9033 9.65277 25.5 9.65277C26.0967 9.65277 26.669 9.88982 27.091 10.3118C27.5129 10.7337 27.75 11.306 27.75 11.9028C27.75 12.4995 27.5129 13.0718 27.091 13.4938C26.669 13.9157 26.0967 14.1528 25.5 14.1528C24.9033 14.1528 24.331 13.9157 23.909 13.4938C23.4871 13.0718 23.25 12.4995 23.25 11.9028ZM25.5 7.40277C24.3065 7.40277 23.1619 7.87688 22.318 8.72079C21.4741 9.5647 21 10.7093 21 11.9028C21 13.0962 21.4741 14.2408 22.318 15.0848C23.1619 15.9287 24.3065 16.4028 25.5 16.4028C26.6935 16.4028 27.8381 15.9287 28.682 15.0848C29.5259 14.2408 30 13.0962 30 11.9028C30 10.7093 29.5259 9.5647 28.682 8.72079C27.8381 7.87688 26.6935 7.40277 25.5 7.40277ZM8.25 19.0278C8.25 17.5788 9.426 16.4028 10.875 16.4028H19.125C20.574 16.4028 21.75 17.5788 21.75 19.0278V24.6528C21.75 26.443 21.0388 28.1599 19.773 29.4257C18.5071 30.6916 16.7902 31.4028 15 31.4028C13.2098 31.4028 11.4929 30.6916 10.227 29.4257C8.96116 28.1599 8.25 26.443 8.25 24.6528V19.0278ZM10.875 18.6528C10.7755 18.6528 10.6802 18.6923 10.6098 18.7626C10.5395 18.8329 10.5 18.9283 10.5 19.0278V24.6528C10.5 25.8462 10.9741 26.9908 11.818 27.8348C12.6619 28.6787 13.8065 29.1528 15 29.1528C16.1935 29.1528 17.3381 28.6787 18.182 27.8348C19.0259 26.9908 19.5 25.8462 19.5 24.6528V19.0278C19.5 18.9283 19.4605 18.8329 19.3902 18.7626C19.3198 18.6923 19.2245 18.6528 19.125 18.6528H10.875ZM6.915 17.8698C6.806 18.2388 6.751 18.6248 6.75 19.0278V20.2428L2.529 21.3738C2.43293 21.3994 2.351 21.4622 2.30121 21.5483C2.25142 21.6344 2.23786 21.7367 2.2635 21.8328L3.3315 25.8183C3.60543 26.8406 4.23096 27.7337 5.09814 28.3406C5.96533 28.9474 7.01866 29.2291 8.073 29.1363C8.5455 29.8653 9.1305 30.5148 9.8025 31.0593C8.9296 31.3487 8.00677 31.4567 7.09063 31.3767C6.1745 31.2966 5.28438 31.0302 4.4749 30.5938C3.66541 30.1574 2.95365 29.5602 2.38327 28.8388C1.8129 28.1174 1.39595 27.2871 1.158 26.3988L0.0899999 22.4148C-0.0900732 21.7425 0.00423533 21.0261 0.352188 20.4233C0.700141 19.8205 1.27325 19.3806 1.9455 19.2003L6.915 17.8698ZM20.1975 31.0593C20.3225 31.1013 20.449 31.1393 20.577 31.1733C22.3061 31.6365 24.1485 31.3938 25.6987 30.4987C27.249 29.6036 28.3802 28.1294 28.8435 26.4003L29.9115 22.4163C30.0009 22.0833 30.0238 21.7359 29.9789 21.3941C29.934 21.0522 29.8223 20.7225 29.65 20.4239C29.4776 20.1253 29.2482 19.8635 28.9747 19.6535C28.7012 19.4436 28.389 19.2896 28.056 19.2003L23.085 17.8683C23.194 18.2383 23.249 18.6248 23.25 19.0278V20.2428L27.474 21.3738C27.5698 21.3998 27.6514 21.4627 27.7009 21.5487C27.7503 21.6348 27.7637 21.7369 27.738 21.8328L26.67 25.8183C26.396 26.8409 25.7703 27.7342 24.9028 28.3411C24.0353 28.9479 22.9816 29.2295 21.927 29.1363C21.4552 29.8642 20.8715 30.5132 20.1975 31.0593Z" fill="#710FD8"/>
</svg>
