<svg width="36" height="37" viewBox="0 0 36 37" fill="none" xmlns="http://www.w3.org/2000/svg">
<path d="M6 26.3204V27.8204H10.5V9.82043H6V23.3204H7.5V26.3204H6ZM4.5 6.82043H12C12.3978 6.82043 12.7794 6.97847 13.0607 7.25977C13.342 7.54108 13.5 7.92261 13.5 8.32043V29.3204C13.5 29.7183 13.342 30.0998 13.0607 30.3811C12.7794 30.6624 12.3978 30.8204 12 30.8204H4.5C4.10218 30.8204 3.72064 30.6624 3.43934 30.3811C3.15804 30.0998 3 29.7183 3 29.3204V8.32043C3 7.92261 3.15804 7.54108 3.43934 7.25977C3.72064 6.97847 4.10218 6.82043 4.5 6.82043ZM18 11.3204H30C30.7956 11.3204 31.5587 11.6365 32.1213 12.1991C32.6839 12.7617 33 13.5248 33 14.3204V23.3204C33 24.1161 32.6839 24.8791 32.1213 25.4418C31.5587 26.0044 30.7956 26.3204 30 26.3204H18C17.2044 26.3204 16.4413 26.0044 15.8787 25.4418C15.3161 24.8791 15 24.1161 15 23.3204V14.3204C15 13.5248 15.3161 12.7617 15.8787 12.1991C16.4413 11.6365 17.2044 11.3204 18 11.3204ZM18 14.3204V23.3204H30V14.3204H18ZM21 27.8204H27C27.3978 27.8204 27.7794 27.9785 28.0607 28.2598C28.342 28.5411 28.5 28.9226 28.5 29.3204C28.5 29.7183 28.342 30.0998 28.0607 30.3811C27.7794 30.6624 27.3978 30.8204 27 30.8204H21C20.6022 30.8204 20.2206 30.6624 19.9393 30.3811C19.658 30.0998 19.5 29.7183 19.5 29.3204C19.5 28.9226 19.658 28.5411 19.9393 28.2598C20.2206 27.9785 20.6022 27.8204 21 27.8204Z" fill="#59A961"/>
</svg>
