<svg width="36" height="37" viewBox="0 0 36 37" fill="none" xmlns="http://www.w3.org/2000/svg">
<path d="M32.6137 34.5704V19.9229C32.6137 19.3154 32.1188 18.8092 31.5 18.8092H22.5V14.3204H24.75V15.6592C24.75 16.1654 25.155 16.5704 25.65 16.5704H29.4638C29.97 16.5704 30.375 16.1654 30.375 15.6704V6.23168C30.375 5.72543 29.97 5.32043 29.475 5.32043H25.6612C25.155 5.32043 24.75 5.72543 24.75 6.23168V7.57043H22.5V4.10543C22.5 3.53168 22.0387 3.07043 21.465 3.07043H4.41C3.83625 3.07043 3.375 3.53168 3.375 4.10543V34.5479H5.6025V28.9792C5.6025 28.3379 6.12 27.8204 6.76125 27.8204H19.0912C19.7325 27.8204 20.25 28.3379 20.25 28.9792V34.5704H19.1363V29.3392C19.1363 29.1254 18.9675 28.9454 18.7425 28.9454H16.1775C15.9638 28.9454 15.7837 29.1142 15.7837 29.3392V34.5704H12.375H32.6137ZM22.5 31.2067V27.8204H24.1875C24.5025 27.8204 24.75 28.0792 24.75 28.3829V30.6329C24.75 30.9479 24.5025 31.1954 24.1875 31.2067H22.5ZM22.5 25.5817V22.1954H24.1875C24.5025 22.1954 24.75 22.4542 24.75 22.7579V25.0079C24.75 25.3229 24.5025 25.5704 24.1875 25.5817H22.5ZM24.75 13.1954H22.5V8.69543H24.75V13.1954ZM30.375 22.7579V25.0079C30.375 25.3229 30.1275 25.5704 29.8125 25.5817H27.54C27.225 25.5817 26.9775 25.3229 26.9775 25.0192V22.7579C26.9775 22.4429 27.2362 22.1954 27.54 22.1954H29.8125C30.1275 22.1954 30.375 22.4542 30.375 22.7579ZM30.375 28.3829V30.6329C30.375 30.9479 30.1275 31.1954 29.8125 31.2067H27.54C27.225 31.2067 26.9775 30.9479 26.9775 30.6442V28.3829C26.9775 28.0679 27.2362 27.8204 27.54 27.8204H29.8125C30.1275 27.8204 30.375 28.0792 30.375 28.3829ZM14.6363 5.88293V8.13293C14.6363 8.44793 14.3888 8.69543 14.0738 8.69543H11.8012C11.4862 8.69543 11.2387 8.43668 11.2387 8.13293V5.88293C11.2387 5.56793 11.4975 5.32043 11.8012 5.32043H14.0738C14.3888 5.32043 14.6363 5.57918 14.6363 5.88293ZM14.6363 13.7579C14.6363 14.0729 14.3888 14.3204 14.0738 14.3204H11.8012C11.4862 14.3204 11.2387 14.0617 11.2387 13.7579V11.5079C11.2387 11.1929 11.4975 10.9454 11.8012 10.9454H14.0738C14.3888 10.9454 14.6363 11.2042 14.6363 11.5079V13.7579ZM14.6363 17.1329V19.3829C14.6363 19.6979 14.3888 19.9454 14.0738 19.9567H11.8012C11.4862 19.9567 11.2387 19.6979 11.2387 19.3942V17.1329C11.2387 16.8179 11.4975 16.5704 11.8012 16.5704H14.0738C14.3888 16.5704 14.6363 16.8292 14.6363 17.1329ZM14.6363 22.7579V25.0079C14.6363 25.3229 14.3888 25.5704 14.0738 25.5817H11.8012C11.4862 25.5817 11.2387 25.3229 11.2387 25.0192V22.7579C11.2387 22.4429 11.4975 22.1954 11.8012 22.1954H14.0738C14.3888 22.1954 14.6363 22.4542 14.6363 22.7579ZM20.2725 25.0079C20.2725 25.3229 20.0138 25.5704 19.71 25.5817H17.4375C17.1225 25.5817 16.875 25.3229 16.875 25.0192V22.7579C16.875 22.4429 17.1337 22.1954 17.4375 22.1954H19.71C20.025 22.1954 20.2725 22.4542 20.2725 22.7579V25.0079ZM20.2725 17.1329V19.3829C20.2725 19.6979 20.0138 19.9454 19.71 19.9567H17.4375C17.1225 19.9567 16.875 19.6979 16.875 19.3942V17.1329C16.875 16.8179 17.1337 16.5704 17.4375 16.5704H19.71C20.025 16.5704 20.2725 16.8292 20.2725 17.1329ZM20.2725 13.7579C20.2725 14.0729 20.0138 14.3204 19.71 14.3204H17.4375C17.1225 14.3204 16.875 14.0617 16.875 13.7579V11.5079C16.875 11.1929 17.1225 10.9454 17.4375 10.9454H19.71C20.025 10.9454 20.2725 11.2042 20.2725 11.5079V13.7579ZM20.2725 5.88293V8.13293C20.2725 8.44793 20.0138 8.69543 19.71 8.69543H17.4375C17.1225 8.69543 16.875 8.44793 16.875 8.13293V5.88293C16.875 5.56793 17.1225 5.32043 17.4375 5.32043H19.71C20.025 5.32043 20.2725 5.57918 20.2725 5.88293ZM9.01125 25.0079C9.01125 25.3229 8.76375 25.5704 8.44875 25.5817H6.17625C5.86125 25.5817 5.61375 25.3229 5.61375 25.0192V22.7579C5.61375 22.4429 5.8725 22.1954 6.17625 22.1954H8.44875C8.76375 22.1954 9.01125 22.4542 9.01125 22.7579V25.0079ZM9.01125 17.1329V19.3829C9.01125 19.6979 8.76375 19.9454 8.44875 19.9567H6.17625C5.86125 19.9567 5.61375 19.6979 5.61375 19.3942V17.1329C5.61375 16.8179 5.8725 16.5704 6.17625 16.5704H8.44875C8.76375 16.5704 9.01125 16.8292 9.01125 17.1329ZM9.01125 13.7579C9.01125 14.0729 8.76375 14.3204 8.44875 14.3204H6.17625C5.86125 14.3204 5.61375 14.0617 5.61375 13.7579V11.5079C5.61375 11.1929 5.8725 10.9454 6.17625 10.9454H8.44875C8.76375 10.9454 9.01125 11.2042 9.01125 11.5079V13.7579ZM9.01125 5.88293V8.13293C9.01125 8.44793 8.76375 8.69543 8.44875 8.69543H6.17625C5.86125 8.69543 5.61375 8.43668 5.61375 8.13293V5.88293C5.61375 5.56793 5.8725 5.32043 6.17625 5.32043H8.44875C8.76375 5.32043 9.01125 5.57918 9.01125 5.88293Z" fill="#303434"/>
<path d="M14.625 34.5704H11.2725V29.3392C11.2725 29.1142 11.4525 28.9454 11.6662 28.9454H14.2312C14.445 28.9454 14.625 29.1142 14.625 29.3392V34.5704ZM10.1025 29.3392V34.5704H6.75V29.3392C6.75 29.1142 6.91875 28.9454 7.14375 28.9454H9.70875C9.93375 28.9454 10.1025 29.1254 10.1025 29.3392Z" fill="#303434"/>
</svg>
