<svg width="36" height="36" viewBox="0 0 36 36" fill="none" xmlns="http://www.w3.org/2000/svg">
<path d="M7.66463 2.70676L6.08063 4.28851L8.4375 6.64426L10.0192 5.06251L7.66463 2.70676ZM28.3365 2.70676L25.9796 5.06251L27.5625 6.64426L29.9182 4.28963L28.3365 2.70676ZM18 3.40876C17.6287 3.41176 17.2537 3.43576 16.875 3.48076H16.8413C12.2782 4.00388 8.64675 7.69051 8.01562 12.2333C7.51162 15.8895 9.01912 19.2049 11.5312 21.3401C12.5587 22.2172 13.2537 23.4206 13.5 24.7489V31.4989H16.065C16.4565 32.1705 17.1709 32.6239 18 32.6239C18.8291 32.6239 19.5435 32.1705 19.935 31.4989H22.5V26.9989H22.6057V25.6624C22.6057 24.0131 23.463 22.3504 24.8557 21.0578C26.7188 19.1925 28.125 16.5431 28.125 13.5C28.125 7.94251 23.5508 3.35701 18 3.40876ZM18 5.65876C22.3481 5.59801 25.875 9.15751 25.875 13.5C25.875 15.8558 24.7838 17.9303 23.2729 19.44L23.3089 19.476C21.808 20.861 20.8373 22.7261 20.5639 24.75H15.6431C15.3956 22.8218 14.5688 20.9554 13.0061 19.6166C11.0182 17.9291 9.83363 15.3866 10.2296 12.5156C10.7213 8.97188 13.5968 6.12226 17.1203 5.73188C17.4112 5.69154 17.7041 5.6675 17.9978 5.65988L18 5.65876ZM2.25 13.5V15.75H5.625V13.5H2.25ZM30.375 13.5V15.75H33.75V13.5H30.375ZM8.4375 22.6058L6.08175 24.9604L7.66463 26.5433L10.0181 24.1875L8.4375 22.6058ZM27.5625 22.6058L25.9807 24.1875L28.3354 26.5433L29.9182 24.9604L27.5625 22.6058ZM15.75 27H20.25V29.25H15.75V27Z" fill="black"/>
</svg>
