<svg width="384" height="59" viewBox="0 0 384 59" fill="none" xmlns="http://www.w3.org/2000/svg">
<path d="M28.7961 16.044H0C0 7.18305 7.18305 0 16.044 0H28.7961V16.044Z" fill="#710FD8"/>
<path d="M57.5832 16.044H33.0938C33.0938 7.18305 40.2768 0 49.1377 0H57.5912V16.044H57.5832Z" fill="#25D838"/>
<path d="M41.5472 36.7779H33.0938V20.7339H57.5832C57.5832 29.5948 50.4002 36.7779 41.5472 36.7779Z" fill="#25D838"/>
<path d="M41.5492 57.504H20.4795V41.46H57.5852C57.5852 50.3289 50.4022 57.504 41.5492 57.504Z" fill="#710FD8"/>
<path d="M28.7961 20.7339H0V32.0398V36.7699V42.2271C0 50.6646 6.83947 57.504 15.277 57.504H16.044V36.7699H28.7961V20.7339V20.7339Z" fill="#710FD8"/>
<path d="M363.47 58V32.5454H373.513C375.435 32.5454 377.076 32.8893 378.435 33.577C379.802 34.2565 380.842 35.2218 381.555 36.473C382.275 37.7159 382.636 39.1783 382.636 40.8604C382.636 42.5507 382.271 44.0049 381.542 45.223C380.813 46.4327 379.756 47.3608 378.373 48.0071C376.997 48.6534 375.332 48.9765 373.376 48.9765H366.652V44.6512H372.506C373.534 44.6512 374.387 44.5104 375.067 44.2287C375.746 43.9469 376.251 43.5243 376.583 42.9609C376.923 42.3974 377.092 41.6973 377.092 40.8604C377.092 40.0152 376.923 39.3026 376.583 38.7226C376.251 38.1426 375.742 37.7034 375.054 37.4051C374.375 37.0986 373.517 36.9453 372.481 36.9453H368.852V58H363.47ZM377.217 46.4162L383.543 58H377.602L371.412 46.4162H377.217Z" fill="white"/>
<path d="M342.34 58V32.5454H359.492V36.9826H347.721V43.0479H358.609V47.485H347.721V53.5628H359.541V58H342.34Z" fill="white"/>
<path d="M338.193 32.5454V58H333.545L322.471 41.979H322.284V58H316.902V32.5454H321.625L332.613 48.5539H332.836V32.5454H338.193Z" fill="white"/>
<path d="M312.756 32.5454V58H308.107L297.033 41.979H296.847V58H291.465V32.5454H296.188L307.175 48.5539H307.399V32.5454H312.756Z" fill="white"/>
<path d="M269.971 58H264.204L272.991 32.5454H279.927L288.701 58H282.934L276.558 38.3622H276.359L269.971 58ZM269.61 47.9946H283.233V52.1956H269.61V47.9946Z" fill="white"/>
<path d="M245.376 58V32.5454H250.757V53.5628H261.67V58H245.376Z" fill="white"/>
<path d="M223.015 58V32.5454H233.057C234.988 32.5454 236.633 32.9141 237.991 33.6516C239.35 34.3808 240.386 35.3958 241.099 36.6967C241.82 37.9893 242.18 39.4808 242.18 41.1711C242.18 42.8615 241.815 44.3529 241.086 45.6456C240.357 46.9382 239.301 47.9449 237.917 48.6658C236.541 49.3867 234.876 49.7471 232.92 49.7471H226.52V45.4343H232.05C233.086 45.4343 233.94 45.2561 234.611 44.8998C235.29 44.5352 235.796 44.0339 236.127 43.3959C236.467 42.7496 236.637 42.008 236.637 41.1711C236.637 40.326 236.467 39.5885 236.127 38.9588C235.796 38.3207 235.29 37.8277 234.611 37.4797C233.931 37.1234 233.07 36.9453 232.026 36.9453H228.396V58H223.015Z" fill="white"/>
<path d="M191.166 36.9826V32.5454H212.071V36.9826H204.278V58H198.959V36.9826H191.166Z" fill="white"/>
<path d="M183.309 39.8661C183.21 38.8635 182.783 38.0846 182.029 37.5294C181.275 36.9743 180.251 36.6967 178.959 36.6967C178.081 36.6967 177.339 36.821 176.734 37.0695C176.129 37.3098 175.665 37.6454 175.342 38.0763C175.027 38.5072 174.87 38.996 174.87 39.5429C174.853 39.9986 174.948 40.3964 175.156 40.7361C175.371 41.0758 175.665 41.37 176.038 41.6186C176.411 41.8588 176.842 42.0701 177.331 42.2524C177.82 42.4264 178.342 42.5756 178.897 42.6999L181.184 43.2467C182.294 43.4953 183.313 43.8268 184.241 44.2411C185.169 44.6554 185.973 45.165 186.652 45.7698C187.332 46.3747 187.858 47.0873 188.231 47.9076C188.612 48.7279 188.807 49.6684 188.815 50.729C188.807 52.2868 188.409 53.6374 187.622 54.7808C186.843 55.916 185.716 56.7985 184.241 57.4282C182.775 58.0497 181.006 58.3604 178.934 58.3604C176.879 58.3604 175.089 58.0455 173.565 57.4158C172.048 56.786 170.863 55.8539 170.01 54.6193C169.165 53.3764 168.722 51.8393 168.68 50.0081H173.888C173.946 50.8616 174.19 51.5742 174.621 52.1459C175.06 52.7093 175.644 53.1361 176.374 53.4261C177.111 53.7078 177.944 53.8487 178.872 53.8487C179.783 53.8487 180.575 53.7161 181.246 53.4509C181.925 53.1858 182.451 52.8171 182.824 52.3448C183.197 51.8725 183.384 51.3297 183.384 50.7166C183.384 50.1448 183.214 49.6642 182.874 49.2748C182.543 48.8854 182.054 48.5539 181.407 48.2805C180.769 48.007 179.986 47.7585 179.058 47.5347L176.287 46.8387C174.141 46.3167 172.446 45.5005 171.203 44.3902C169.96 43.2799 169.343 41.7843 169.351 39.9034C169.343 38.3622 169.753 37.0157 170.582 35.8639C171.419 34.7122 172.566 33.8132 174.025 33.1669C175.483 32.5205 177.14 32.1974 178.996 32.1974C180.885 32.1974 182.534 32.5205 183.943 33.1669C185.36 33.8132 186.462 34.7122 187.249 35.8639C188.036 37.0157 188.442 38.3497 188.467 39.8661H183.309Z" fill="white"/>
<path d="M165.814 45.2727C165.814 48.0485 165.288 50.41 164.235 52.3572C163.191 54.3044 161.766 55.7917 159.96 56.8192C158.162 57.8384 156.14 58.348 153.894 58.348C151.632 58.348 149.602 57.8342 147.804 56.8068C146.006 55.7793 144.585 54.292 143.541 52.3448C142.497 50.3976 141.975 48.0402 141.975 45.2727C141.975 42.4969 142.497 40.1354 143.541 38.1882C144.585 36.2409 146.006 34.7578 147.804 33.7386C149.602 32.7111 151.632 32.1974 153.894 32.1974C156.14 32.1974 158.162 32.7111 159.96 33.7386C161.766 34.7578 163.191 36.2409 164.235 38.1882C165.288 40.1354 165.814 42.4969 165.814 45.2727ZM160.358 45.2727C160.358 43.4746 160.088 41.9583 159.55 40.7237C159.019 39.4891 158.269 38.5527 157.3 37.9147C156.331 37.2767 155.195 36.9577 153.894 36.9577C152.594 36.9577 151.458 37.2767 150.489 37.9147C149.519 38.5527 148.765 39.4891 148.227 40.7237C147.697 41.9583 147.431 43.4746 147.431 45.2727C147.431 47.0707 147.697 48.5871 148.227 49.8217C148.765 51.0563 149.519 51.9926 150.489 52.6306C151.458 53.2686 152.594 53.5877 153.894 53.5877C155.195 53.5877 156.331 53.2686 157.3 52.6306C158.269 51.9926 159.019 51.0563 159.55 49.8217C160.088 48.5871 160.358 47.0707 160.358 45.2727Z" fill="white"/>
<path d="M138.863 41.457H133.419C133.32 40.7527 133.117 40.1271 132.81 39.5802C132.504 39.025 132.11 38.5527 131.63 38.1633C131.149 37.7739 130.594 37.4756 129.964 37.2684C129.343 37.0613 128.667 36.9577 127.938 36.9577C126.621 36.9577 125.473 37.285 124.495 37.9396C123.518 38.5859 122.76 39.5305 122.221 40.7734C121.682 42.008 121.413 43.5078 121.413 45.2727C121.413 47.0873 121.682 48.6119 122.221 49.8465C122.768 51.0812 123.53 52.0133 124.508 52.6431C125.486 53.2728 126.617 53.5877 127.901 53.5877C128.622 53.5877 129.289 53.4924 129.902 53.3018C130.523 53.1112 131.075 52.8336 131.555 52.4691C132.036 52.0962 132.433 51.6446 132.748 51.1143C133.071 50.584 133.295 49.9791 133.419 49.2997L138.863 49.3245C138.722 50.4928 138.37 51.6197 137.807 52.7052C137.252 53.7824 136.502 54.7477 135.557 55.6012C134.621 56.4463 133.502 57.1175 132.201 57.6146C130.909 58.1035 129.446 58.348 127.814 58.348C125.544 58.348 123.514 57.8342 121.724 56.8068C119.942 55.7793 118.534 54.292 117.498 52.3448C116.47 50.3976 115.957 48.0402 115.957 45.2727C115.957 42.4969 116.479 40.1354 117.523 38.1882C118.567 36.2409 119.984 34.7578 121.773 33.7386C123.563 32.7111 125.577 32.1974 127.814 32.1974C129.289 32.1974 130.656 32.4045 131.916 32.8188C133.183 33.2331 134.306 33.838 135.284 34.6335C136.262 35.4206 137.057 36.386 137.67 37.5294C138.292 38.6729 138.689 39.9821 138.863 41.457Z" fill="white"/>
<path d="M104.476 32.5454V58H99.094V32.5454H104.476Z" fill="white"/>
<path d="M77.5998 58H71.8328L80.6201 32.5454H87.5554L96.3303 58H90.5632L84.1872 38.3622H83.9883L77.5998 58ZM77.2394 47.9946H90.8615V52.1956H77.2394V47.9946Z" fill="white"/>
<path d="M245.551 0.54541H251.579L257.384 11.5078H257.632L263.437 0.54541H269.465L260.18 17.0014V26H254.836V17.0014L245.551 0.54541Z" fill="white"/>
<path d="M225.434 26V0.54541H235.476C237.399 0.54541 239.039 0.889279 240.398 1.57702C241.765 2.25647 242.805 3.22178 243.518 4.47297C244.239 5.71586 244.599 7.17834 244.599 8.8604C244.599 10.5507 244.235 12.0049 243.505 13.223C242.776 14.4327 241.72 15.3608 240.336 16.0071C238.961 16.6534 237.295 16.9765 235.34 16.9765H228.615V12.6512H234.47C235.497 12.6512 236.35 12.5104 237.03 12.2286C237.709 11.9469 238.215 11.5243 238.546 10.9609C238.886 10.3974 239.056 9.69728 239.056 8.8604C239.056 8.01523 238.886 7.30263 238.546 6.72261C238.215 6.14259 237.705 5.70343 237.017 5.40514C236.338 5.09856 235.48 4.94527 234.445 4.94527H230.815V26H225.434ZM239.18 14.4161L245.506 26H239.565L233.376 14.4161H239.18Z" fill="white"/>
<path d="M202.765 26V0.54541H212.808C214.73 0.54541 216.37 0.889279 217.729 1.57702C219.097 2.25647 220.136 3.22178 220.849 4.47297C221.57 5.71586 221.93 7.17834 221.93 8.8604C221.93 10.5507 221.566 12.0049 220.837 13.223C220.107 14.4327 219.051 15.3608 217.667 16.0071C216.292 16.6534 214.626 16.9765 212.671 16.9765H205.947V12.6512H211.801C212.828 12.6512 213.682 12.5104 214.361 12.2286C215.041 11.9469 215.546 11.5243 215.877 10.9609C216.217 10.3974 216.387 9.69728 216.387 8.8604C216.387 8.01523 216.217 7.30263 215.877 6.72261C215.546 6.14259 215.036 5.70343 214.349 5.40514C213.669 5.09856 212.812 4.94527 211.776 4.94527H208.147V26H202.765ZM216.511 14.4161L222.838 26H216.897L210.707 14.4161H216.511Z" fill="white"/>
<path d="M181.634 26V0.54541H198.786V4.98255H187.016V11.0479H197.904V15.485H187.016V21.5628H198.836V26H181.634Z" fill="white"/>
<path d="M158.795 26V0.54541H168.986C170.859 0.54541 172.421 0.822991 173.672 1.37815C174.923 1.93331 175.864 2.70391 176.493 3.68994C177.123 4.66769 177.438 5.79458 177.438 7.07062C177.438 8.06494 177.239 8.93911 176.841 9.69314C176.444 10.4389 175.897 11.052 175.201 11.5326C174.513 12.0049 173.726 12.3405 172.839 12.5394V12.788C173.809 12.8294 174.716 13.1028 175.561 13.6083C176.415 14.1137 177.107 14.8222 177.637 15.7336C178.167 16.6368 178.432 17.714 178.432 18.9652C178.432 20.3158 178.097 21.5214 177.426 22.582C176.763 23.6343 175.781 24.467 174.48 25.0802C173.179 25.6934 171.576 26 169.67 26H158.795ZM164.176 21.6001H168.564C170.064 21.6001 171.157 21.3142 171.845 20.7425C172.533 20.1625 172.877 19.3919 172.877 18.4307C172.877 17.7264 172.707 17.105 172.367 16.5664C172.027 16.0278 171.543 15.6052 170.913 15.2986C170.291 14.992 169.55 14.8387 168.688 14.8387H164.176V21.6001ZM164.176 11.197H168.166C168.903 11.197 169.558 11.0686 170.13 10.8117C170.71 10.5466 171.166 10.1737 171.497 9.69314C171.837 9.21255 172.007 8.63667 172.007 7.96551C172.007 7.04577 171.679 6.30417 171.025 5.74072C170.378 5.17728 169.459 4.89555 168.265 4.89555H164.176V11.197Z" fill="white"/>
<path d="M139.121 0.54541L144.254 9.22084H144.453L149.611 0.54541H155.689L147.921 13.2727L155.863 26H149.673L144.453 17.3121H144.254L139.034 26H132.869L140.836 13.2727L133.019 0.54541H139.121Z" fill="white"/>
<path d="M112.944 26V0.54541H130.096V4.98255H118.326V11.0479H129.214V15.485H118.326V21.5628H130.146V26H112.944Z" fill="white"/>
<path d="M93.386 26V0.54541H98.7677V21.5628H109.68V26H93.386Z" fill="white"/>
<path d="M73.2123 26V0.54541H90.066V4.98255H78.5941V11.0479H88.9474V15.485H78.5941V26H73.2123Z" fill="white"/>
</svg>
