<svg width="358" height="59" viewBox="0 0 358 59" fill="none" xmlns="http://www.w3.org/2000/svg">
<path d="M28.7961 15.8383H0C0 7.09096 7.18305 0 16.044 0H28.7961V15.8383Z" fill="#710FD8"/>
<path d="M57.5832 15.8383H33.0938C33.0938 7.09096 40.2768 0 49.1377 0H57.5912V15.8383H57.5832Z" fill="#25D838"/>
<path d="M41.5472 36.3063H33.0938V20.468H57.5832C57.5832 29.2154 50.4002 36.3063 41.5472 36.3063Z" fill="#25D838"/>
<path d="M41.5492 56.7668H20.4795V40.9285H57.5852C57.5852 49.6837 50.4022 56.7668 41.5492 56.7668Z" fill="#710FD8"/>
<path d="M28.7961 20.468H0V31.629V36.2984V41.6857C0 50.015 6.83947 56.7668 15.277 56.7668H16.044V36.2984H28.7961V20.468V20.468Z" fill="#710FD8"/>
<path d="M183.276 58.0384V38.9475H188.409V42.2785H188.608C188.956 41.0936 189.54 40.1987 190.36 39.5938C191.181 38.9807 192.125 38.6741 193.194 38.6741C193.459 38.6741 193.745 38.6906 194.052 38.7238C194.358 38.7569 194.628 38.8025 194.86 38.8605V43.5587C194.611 43.4841 194.267 43.4178 193.828 43.3598C193.389 43.3018 192.987 43.2728 192.622 43.2728C191.844 43.2728 191.148 43.4427 190.534 43.7824C189.929 44.1138 189.449 44.5778 189.093 45.1744C188.745 45.771 188.571 46.4588 188.571 47.2376V58.0384H183.276Z" fill="white"/>
<path d="M171.358 58.4113C169.394 58.4113 167.704 58.0136 166.287 57.2182C164.879 56.4144 163.793 55.2792 163.031 53.8126C162.268 52.3377 161.887 50.5935 161.887 48.58C161.887 46.6162 162.268 44.8927 163.031 43.4096C163.793 41.9264 164.866 40.7705 166.25 39.9419C167.642 39.1133 169.274 38.699 171.147 38.699C172.406 38.699 173.579 38.902 174.664 39.308C175.758 39.7057 176.711 40.3065 177.523 41.1102C178.343 41.9139 178.981 42.9248 179.437 44.1429C179.893 45.3526 180.121 46.7695 180.121 48.3936V49.8478H164V46.5665H175.137C175.137 45.8042 174.971 45.1289 174.639 44.5406C174.308 43.9523 173.848 43.4924 173.26 43.161C172.68 42.8213 172.004 42.6514 171.234 42.6514C170.43 42.6514 169.718 42.8378 169.096 43.2107C168.483 43.5753 168.002 44.0683 167.654 44.6897C167.306 45.3029 167.128 45.9865 167.12 46.7405V49.8602C167.12 50.8048 167.294 51.621 167.642 52.3087C167.998 52.9964 168.499 53.5267 169.146 53.8996C169.792 54.2725 170.559 54.4589 171.445 54.4589C172.033 54.4589 172.572 54.3761 173.061 54.2103C173.55 54.0446 173.968 53.796 174.316 53.4646C174.664 53.1332 174.929 52.7271 175.112 52.2466L180.009 52.5697C179.76 53.7463 179.251 54.7738 178.48 55.6521C177.718 56.5221 176.732 57.2016 175.522 57.6905C174.32 58.171 172.932 58.4113 171.358 58.4113Z" fill="white"/>
<path d="M146.48 47.0015V58.0385H141.185V38.9476H146.232V42.3158H146.455C146.878 41.2055 147.586 40.3272 148.581 39.6809C149.575 39.0263 150.781 38.699 152.197 38.699C153.523 38.699 154.679 38.989 155.665 39.569C156.651 40.149 157.418 40.9776 157.965 42.0548C158.511 43.1237 158.785 44.3997 158.785 45.8829V58.0385H153.49V46.8275C153.498 45.6592 153.2 44.7477 152.595 44.0932C151.99 43.4303 151.158 43.0988 150.097 43.0988C149.384 43.0988 148.755 43.2521 148.208 43.5587C147.669 43.8653 147.247 44.3127 146.94 44.901C146.642 45.4811 146.488 46.1812 146.48 47.0015Z" fill="white"/>
<path d="M125.008 47.0015V58.0385H119.713V38.9476H124.759V42.3158H124.983C125.405 41.2055 126.114 40.3272 127.108 39.6809C128.102 39.0263 129.308 38.699 130.725 38.699C132.051 38.699 133.207 38.989 134.193 39.569C135.179 40.149 135.945 40.9776 136.492 42.0548C137.039 43.1237 137.312 44.3997 137.312 45.8829V58.0385H132.018V46.8275C132.026 45.6592 131.728 44.7477 131.123 44.0932C130.518 43.4303 129.685 43.0988 128.624 43.0988C127.912 43.0988 127.282 43.2521 126.735 43.5587C126.197 43.8653 125.774 44.3127 125.468 44.901C125.169 45.4811 125.016 46.1812 125.008 47.0015Z" fill="white"/>
<path d="M105.154 58.3989C103.936 58.3989 102.851 58.1876 101.898 57.765C100.945 57.3342 100.191 56.7003 99.6356 55.8634C99.0887 55.0182 98.8153 53.9659 98.8153 52.7064C98.8153 51.6458 99.01 50.7551 99.3995 50.0342C99.7889 49.3133 100.319 48.7333 100.99 48.2941C101.662 47.855 102.424 47.5235 103.277 47.2998C104.139 47.0761 105.042 46.9187 105.987 46.8275C107.097 46.7115 107.992 46.6038 108.671 46.5044C109.351 46.3967 109.844 46.2392 110.151 46.0321C110.457 45.8249 110.61 45.5183 110.61 45.1123V45.0378C110.61 44.2506 110.362 43.6416 109.865 43.2107C109.376 42.7798 108.68 42.5644 107.777 42.5644C106.824 42.5644 106.066 42.7757 105.502 43.1983C104.939 43.6126 104.566 44.1346 104.383 44.7643L99.4865 44.3666C99.7351 43.2066 100.224 42.2039 100.953 41.3588C101.682 40.5053 102.623 39.8507 103.774 39.395C104.935 38.931 106.277 38.699 107.801 38.699C108.862 38.699 109.877 38.8233 110.847 39.0718C111.824 39.3204 112.69 39.7057 113.444 40.2277C114.207 40.7498 114.807 41.4209 115.246 42.2412C115.686 43.0533 115.905 44.0269 115.905 45.162V58.0385H110.884V55.3911H110.735C110.428 55.9877 110.018 56.5138 109.504 56.9696C108.99 57.417 108.373 57.7692 107.652 58.026C106.931 58.2746 106.099 58.3989 105.154 58.3989ZM106.67 54.7448C107.449 54.7448 108.137 54.5915 108.734 54.2849C109.33 53.97 109.798 53.5475 110.138 53.0172C110.478 52.4869 110.648 51.8861 110.648 51.215V49.189C110.482 49.2968 110.254 49.3962 109.964 49.4873C109.682 49.5702 109.363 49.6489 109.007 49.7235C108.651 49.7898 108.294 49.8519 107.938 49.9099C107.582 49.9596 107.259 50.0052 106.969 50.0466C106.347 50.1378 105.805 50.2828 105.341 50.4816C104.877 50.6805 104.516 50.9498 104.259 51.2895C104.002 51.621 103.874 52.0353 103.874 52.5324C103.874 53.2533 104.135 53.8043 104.657 54.1855C105.187 54.5584 105.858 54.7448 106.67 54.7448Z" fill="white"/>
<path d="M95.7688 32.5839V58.0384H90.4741V32.5839H95.7688Z" fill="white"/>
<path d="M68.2123 58.0384V32.5839H78.255C80.1856 32.5839 81.8304 32.9526 83.1893 33.69C84.5482 34.4192 85.5839 35.4342 86.2965 36.7351C87.0174 38.0278 87.3778 39.5192 87.3778 41.2096C87.3778 42.8999 87.0132 44.3914 86.2841 45.684C85.5549 46.9766 84.4984 47.9834 83.1147 48.7042C81.7392 49.4251 80.0737 49.7856 78.1182 49.7856H71.7173V45.4727H77.2482C78.284 45.4727 79.1374 45.2946 79.8086 44.9383C80.488 44.5737 80.9935 44.0724 81.3249 43.4344C81.6646 42.7881 81.8345 42.0465 81.8345 41.2096C81.8345 40.3644 81.6646 39.6269 81.3249 38.9972C80.9935 38.3592 80.488 37.8662 79.8086 37.5182C79.1291 37.1619 78.2674 36.9837 77.2234 36.9837H73.5941V58.0384H68.2123Z" fill="white"/>
<path d="M356.68 6.94752V10.9248H345.184V6.94752H356.68ZM347.794 2.37366H353.088V20.172C353.088 20.6608 353.163 21.042 353.312 21.3154C353.461 21.5806 353.668 21.767 353.934 21.8747C354.207 21.9824 354.522 22.0363 354.878 22.0363C355.127 22.0363 355.375 22.0156 355.624 21.9742C355.872 21.9244 356.063 21.8872 356.196 21.8623L357.028 25.8023C356.763 25.8851 356.39 25.9804 355.91 26.0881C355.429 26.2042 354.845 26.2746 354.157 26.2994C352.881 26.3492 351.763 26.1793 350.801 25.7899C349.849 25.4004 349.107 24.7955 348.577 23.9752C348.046 23.1549 347.785 22.1192 347.794 20.868V2.37366Z" fill="white"/>
<path d="M343.057 12.3914L338.209 12.6897C338.127 12.2754 337.948 11.9026 337.675 11.5711C337.402 11.2314 337.041 10.9621 336.594 10.7632C336.155 10.5561 335.628 10.4525 335.015 10.4525C334.195 10.4525 333.503 10.6265 332.94 10.9745C332.376 11.3143 332.094 11.77 332.094 12.3417C332.094 12.7975 332.277 13.1828 332.641 13.4976C333.006 13.8125 333.631 14.0652 334.518 14.2558L337.973 14.9518C339.829 15.333 341.213 15.9461 342.125 16.7913C343.036 17.6365 343.492 18.7468 343.492 20.1223C343.492 21.3735 343.123 22.4713 342.386 23.4159C341.656 24.3605 340.654 25.098 339.378 25.6283C338.11 26.1503 336.648 26.4113 334.99 26.4113C332.463 26.4113 330.45 25.8852 328.95 24.8329C327.458 23.7722 326.584 22.3305 326.327 20.5076L331.535 20.2341C331.692 21.0047 332.074 21.593 332.679 21.999C333.283 22.3968 334.058 22.5956 335.003 22.5956C335.931 22.5956 336.677 22.4175 337.24 22.0612C337.812 21.6966 338.102 21.2284 338.11 20.6567C338.102 20.1761 337.899 19.7825 337.501 19.476C337.103 19.1611 336.49 18.9208 335.661 18.7551L332.355 18.0963C330.491 17.7235 329.103 17.0772 328.192 16.1574C327.289 15.2377 326.837 14.0652 326.837 12.64C326.837 11.4137 327.168 10.3572 327.831 9.47064C328.502 8.58404 329.443 7.90044 330.653 7.41985C331.871 6.93927 333.296 6.69897 334.928 6.69897C337.339 6.69897 339.237 7.20856 340.621 8.22774C342.013 9.24691 342.825 10.6348 343.057 12.3914Z" fill="white"/>
<path d="M314.633 26.4113C312.703 26.4113 311.033 26.0012 309.624 25.1809C308.224 24.3523 307.143 23.2005 306.381 21.7256C305.618 20.2424 305.237 18.5231 305.237 16.5676C305.237 14.5955 305.618 12.872 306.381 11.3971C307.143 9.91394 308.224 8.76218 309.624 7.94187C311.033 7.11327 312.703 6.69897 314.633 6.69897C316.564 6.69897 318.229 7.11327 319.63 7.94187C321.038 8.76218 322.124 9.91394 322.886 11.3971C323.649 12.872 324.03 14.5955 324.03 16.5676C324.03 18.5231 323.649 20.2424 322.886 21.7256C322.124 23.2005 321.038 24.3523 319.63 25.1809C318.229 26.0012 316.564 26.4113 314.633 26.4113ZM314.658 22.3098C315.537 22.3098 316.27 22.0612 316.858 21.564C317.446 21.0586 317.89 20.3708 318.188 19.5008C318.495 18.6308 318.648 17.6406 318.648 16.5303C318.648 15.42 318.495 14.4298 318.188 13.5598C317.89 12.6897 317.446 12.002 316.858 11.4966C316.27 10.9911 315.537 10.7384 314.658 10.7384C313.772 10.7384 313.026 10.9911 312.421 11.4966C311.824 12.002 311.373 12.6897 311.066 13.5598C310.768 14.4298 310.619 15.42 310.619 16.5303C310.619 17.6406 310.768 18.6308 311.066 19.5008C311.373 20.3708 311.824 21.0586 312.421 21.564C313.026 22.0612 313.772 22.3098 314.658 22.3098Z" fill="white"/>
<path d="M302.548 9.49543H297.104C297.005 8.79112 296.802 8.16553 296.495 7.61865C296.188 7.06349 295.795 6.59119 295.314 6.20175C294.834 5.81231 294.278 5.51401 293.649 5.30686C293.027 5.09971 292.352 4.99614 291.623 4.99614C290.305 4.99614 289.158 5.32344 288.18 5.97803C287.202 6.62433 286.444 7.56894 285.906 8.81184C285.367 10.0464 285.098 11.5462 285.098 13.3111C285.098 15.1258 285.367 16.6504 285.906 17.885C286.452 19.1196 287.215 20.0518 288.192 20.6815C289.17 21.3112 290.301 21.6261 291.586 21.6261C292.306 21.6261 292.973 21.5308 293.587 21.3402C294.208 21.1497 294.759 20.8721 295.24 20.5075C295.72 20.1346 296.118 19.683 296.433 19.1527C296.756 18.6224 296.98 18.0176 297.104 17.3381L302.548 17.363C302.407 18.5313 302.055 19.6582 301.491 20.7437C300.936 21.8208 300.186 22.7861 299.242 23.6396C298.305 24.4848 297.187 25.1559 295.886 25.6531C294.593 26.142 293.131 26.3864 291.499 26.3864C289.228 26.3864 287.198 25.8727 285.408 24.8452C283.627 23.8178 282.218 22.3304 281.182 20.3832C280.155 18.436 279.641 16.0786 279.641 13.3111C279.641 10.5353 280.163 8.17381 281.207 6.22661C282.251 4.2794 283.668 2.79621 285.458 1.77703C287.248 0.749571 289.261 0.23584 291.499 0.23584C292.973 0.23584 294.341 0.442989 295.6 0.857289C296.868 1.27159 297.991 1.87646 298.968 2.67192C299.946 3.45909 300.742 4.42441 301.355 5.56787C301.976 6.71134 302.374 8.02052 302.548 9.49543Z" fill="white"/>
<path d="M268.16 0.583862V26.0384H262.779V0.583862H268.16Z" fill="white"/>
<path d="M241.284 26.0384H235.517L244.305 0.583862H251.24L260.015 26.0384H254.248L247.872 6.40062H247.673L241.284 26.0384ZM240.924 16.0331H254.546V20.2341H240.924V16.0331Z" fill="white"/>
<path d="M212.058 33.1975C211.387 33.1975 210.757 33.1437 210.169 33.0359C209.589 32.9365 209.108 32.8081 208.727 32.6506L209.92 28.6982C210.542 28.8888 211.101 28.9924 211.598 29.0089C212.103 29.0255 212.539 28.9095 212.903 28.6609C213.276 28.4124 213.578 27.9898 213.81 27.3932L214.121 26.5853L207.273 6.94751H212.841L216.793 20.9674H216.992L220.982 6.94751H226.587L219.167 28.1016C218.811 29.1291 218.326 30.024 217.713 30.7863C217.108 31.5569 216.342 32.1493 215.414 32.5636C214.486 32.9862 213.367 33.1975 212.058 33.1975Z" fill="white"/>
<path d="M194.187 26.0384V6.94751H199.32V10.2785H199.519C199.867 9.09358 200.451 8.19869 201.271 7.59382C202.092 6.98065 203.036 6.67407 204.105 6.67407C204.37 6.67407 204.656 6.69064 204.963 6.72379C205.269 6.75693 205.539 6.80251 205.771 6.86051V11.5587C205.522 11.4841 205.178 11.4178 204.739 11.3598C204.3 11.3018 203.898 11.2728 203.533 11.2728C202.754 11.2728 202.058 11.4427 201.445 11.7824C200.84 12.1138 200.36 12.5778 200.004 13.1744C199.656 13.771 199.482 14.4588 199.482 15.2376V26.0384H194.187Z" fill="white"/>
<path d="M180.165 26.0384V6.94751H185.299V10.2785H185.497C185.846 9.09358 186.43 8.19869 187.25 7.59382C188.07 6.98065 189.015 6.67407 190.084 6.67407C190.349 6.67407 190.635 6.69064 190.941 6.72379C191.248 6.75693 191.517 6.80251 191.749 6.86051V11.5587C191.501 11.4841 191.157 11.4178 190.718 11.3598C190.279 11.3018 189.877 11.2728 189.512 11.2728C188.733 11.2728 188.037 11.4427 187.424 11.7824C186.819 12.1138 186.339 12.5778 185.982 13.1744C185.634 13.771 185.46 14.4588 185.46 15.2376V26.0384H180.165Z" fill="white"/>
<path d="M168.248 26.4113C166.284 26.4113 164.594 26.0136 163.177 25.2182C161.768 24.4144 160.683 23.2792 159.92 21.8126C159.158 20.3377 158.777 18.5935 158.777 16.58C158.777 14.6162 159.158 12.8927 159.92 11.4096C160.683 9.92637 161.756 8.77047 163.139 7.94187C164.532 7.11327 166.164 6.69897 168.037 6.69897C169.296 6.69897 170.468 6.90198 171.554 7.30799C172.648 7.70572 173.601 8.30645 174.413 9.1102C175.233 9.91394 175.871 10.9248 176.327 12.1429C176.782 13.3526 177.01 14.7695 177.01 16.3936V17.8478H160.89V14.5665H172.026C172.026 13.8042 171.86 13.1289 171.529 12.5406C171.198 11.9523 170.738 11.4924 170.149 11.161C169.569 10.8213 168.894 10.6514 168.124 10.6514C167.32 10.6514 166.607 10.8378 165.986 11.2107C165.373 11.5753 164.892 12.0683 164.544 12.6897C164.196 13.3029 164.018 13.9865 164.01 14.7405V17.8602C164.01 18.8048 164.184 19.621 164.532 20.3087C164.888 20.9964 165.389 21.5267 166.035 21.8996C166.682 22.2725 167.448 22.4589 168.335 22.4589C168.923 22.4589 169.462 22.3761 169.951 22.2103C170.439 22.0446 170.858 21.796 171.206 21.4646C171.554 21.1332 171.819 20.7271 172.001 20.2466L176.898 20.5697C176.65 21.7463 176.14 22.7738 175.37 23.6521C174.607 24.5221 173.621 25.2016 172.412 25.6905C171.21 26.171 169.822 26.4113 168.248 26.4113Z" fill="white"/>
<path d="M137.696 26.0384V0.583862H142.991V10.1542H143.152C143.384 9.64044 143.72 9.11843 144.159 8.58812C144.606 8.04953 145.186 7.60209 145.899 7.2458C146.62 6.88121 147.515 6.69892 148.584 6.69892C149.976 6.69892 151.26 7.0635 152.437 7.79267C153.613 8.51355 154.554 9.60316 155.258 11.0615C155.962 12.5115 156.315 14.3303 156.315 16.5178C156.315 18.6473 155.971 20.4454 155.283 21.912C154.604 23.3703 153.675 24.4765 152.499 25.2305C151.331 25.9763 150.021 26.3491 148.571 26.3491C147.544 26.3491 146.67 26.1793 145.949 25.8395C145.236 25.4998 144.652 25.0731 144.196 24.5594C143.741 24.0373 143.393 23.5112 143.152 22.9809H142.916V26.0384H137.696ZM142.879 16.493C142.879 17.6281 143.036 18.6183 143.351 19.4635C143.666 20.3086 144.122 20.9674 144.718 21.4397C145.315 21.9037 146.04 22.1357 146.893 22.1357C147.755 22.1357 148.484 21.8996 149.081 21.4273C149.677 20.9467 150.129 20.2838 150.436 19.4386C150.751 18.5852 150.908 17.6033 150.908 16.493C150.908 15.3909 150.755 14.4215 150.448 13.5846C150.142 12.7477 149.69 12.0931 149.093 11.6208C148.497 11.1485 147.763 10.9123 146.893 10.9123C146.032 10.9123 145.302 11.1402 144.706 11.5959C144.118 12.0517 143.666 12.698 143.351 13.5349C143.036 14.3717 142.879 15.3578 142.879 16.493Z" fill="white"/>
<path d="M122.224 6.94751L125.729 13.6219L129.321 6.94751H134.752L129.221 16.493L134.901 26.0384H129.495L125.729 19.4386L122.025 26.0384H116.556L122.224 16.493L116.755 6.94751H122.224Z" fill="white"/>
<path d="M106.223 26.4113C104.259 26.4113 102.569 26.0136 101.152 25.2182C99.7433 24.4144 98.6579 23.2792 97.8955 21.8126C97.1332 20.3377 96.7521 18.5935 96.7521 16.58C96.7521 14.6162 97.1332 12.8927 97.8955 11.4096C98.6579 9.92637 99.7309 8.77047 101.115 7.94187C102.507 7.11327 104.139 6.69897 106.012 6.69897C107.271 6.69897 108.444 6.90198 109.529 7.30799C110.623 7.70572 111.576 8.30645 112.388 9.1102C113.208 9.91394 113.846 10.9248 114.302 12.1429C114.758 13.3526 114.985 14.7695 114.985 16.3936V17.8478H98.865V14.5665H110.001C110.001 13.8042 109.836 13.1289 109.504 12.5406C109.173 11.9523 108.713 11.4924 108.125 11.161C107.545 10.8213 106.869 10.6514 106.099 10.6514C105.295 10.6514 104.582 10.8378 103.961 11.2107C103.348 11.5753 102.867 12.0683 102.519 12.6897C102.171 13.3029 101.993 13.9865 101.985 14.7405V17.8602C101.985 18.8048 102.159 19.621 102.507 20.3087C102.863 20.9964 103.364 21.5267 104.011 21.8996C104.657 22.2725 105.423 22.4589 106.31 22.4589C106.898 22.4589 107.437 22.3761 107.926 22.2103C108.415 22.0446 108.833 21.796 109.181 21.4646C109.529 21.1332 109.794 20.7271 109.977 20.2466L114.874 20.5697C114.625 21.7463 114.115 22.7738 113.345 23.6521C112.582 24.5221 111.596 25.2016 110.387 25.6905C109.185 26.171 107.797 26.4113 106.223 26.4113Z" fill="white"/>
<path d="M93.5813 0.583862V26.0384H88.2866V0.583862H93.5813Z" fill="white"/>
<path d="M68.2123 26.0384V0.583862H85.066V5.02101H73.5941V11.0863H83.9474V15.5235H73.5941V26.0384H68.2123Z" fill="white"/>
</svg>
