<svg width="34" height="35" viewBox="0 0 34 35" fill="none" xmlns="http://www.w3.org/2000/svg">
<path d="M17 12.7292C16.0225 12.7292 15.2292 13.5225 15.2292 14.5V14.6516C15.2292 14.9334 15.1172 15.2037 14.918 15.4029C14.7187 15.6022 14.4485 15.7141 14.1667 15.7141C13.8849 15.7141 13.6146 15.6022 13.4154 15.4029C13.2161 15.2037 13.1042 14.9334 13.1042 14.6516V14.5C13.1042 13.4668 13.5146 12.4759 14.2452 11.7453C14.9759 11.0147 15.9668 10.6042 17 10.6042H17.1644C17.9265 10.6046 18.6702 10.8383 19.2956 11.2739C19.9209 11.7095 20.3979 12.3262 20.6623 13.041C20.9268 13.7558 20.966 14.5344 20.7747 15.2721C20.5835 16.0099 20.1709 16.6713 19.5925 17.1676L18.5017 18.1026C18.3648 18.2214 18.2549 18.368 18.1791 18.5327C18.1034 18.6973 18.0637 18.8762 18.0625 19.0575V19.8125C18.0625 20.0943 17.9506 20.3646 17.7513 20.5638C17.5521 20.7631 17.2818 20.875 17 20.875C16.7182 20.875 16.448 20.7631 16.2487 20.5638C16.0495 20.3646 15.9375 20.0943 15.9375 19.8125V19.0575C15.9375 18.07 16.3682 17.1322 17.1176 16.4905L18.2099 15.5555C18.4591 15.3418 18.6369 15.057 18.7193 14.7393C18.8018 14.4216 18.785 14.0862 18.6711 13.7783C18.5572 13.4705 18.3517 13.2049 18.0824 13.0173C17.813 12.8298 17.4926 12.7292 17.1644 12.7292H17ZM17 24.4167C17.3757 24.4167 17.7361 24.2675 18.0018 24.0018C18.2674 23.7361 18.4167 23.3758 18.4167 23C18.4167 22.6243 18.2674 22.264 18.0018 21.9983C17.7361 21.7326 17.3757 21.5834 17 21.5834C16.6243 21.5834 16.264 21.7326 15.9983 21.9983C15.7326 22.264 15.5834 22.6243 15.5834 23C15.5834 23.3758 15.7326 23.7361 15.9983 24.0018C16.264 24.2675 16.6243 24.4167 17 24.4167Z" fill="black"/>
<path d="M4.60419 17.3334C4.60419 14.0458 5.91017 10.8929 8.23484 8.5682C10.5595 6.24353 13.7124 4.93754 17 4.93754C20.2876 4.93754 23.4405 6.24353 25.7652 8.5682C28.0899 10.8929 29.3959 14.0458 29.3959 17.3334C29.3959 20.621 28.0899 23.7739 25.7652 26.0986C23.4405 28.4232 20.2876 29.7292 17 29.7292C13.7124 29.7292 10.5595 28.4232 8.23484 26.0986C5.91017 23.7739 4.60419 20.621 4.60419 17.3334ZM17 7.06254C15.6512 7.06254 14.3157 7.3282 13.0695 7.84436C11.8234 8.36052 10.6912 9.11706 9.73744 10.0708C8.78371 11.0245 8.02716 12.1568 7.51101 13.4029C6.99485 14.649 6.72919 15.9846 6.72919 17.3334C6.72919 18.6822 6.99485 20.0177 7.51101 21.2639C8.02716 22.51 8.78371 23.6422 9.73744 24.5959C10.6912 25.5497 11.8234 26.3062 13.0695 26.8224C14.3157 27.3385 15.6512 27.6042 17 27.6042C19.724 27.6042 22.3364 26.5221 24.2626 24.5959C26.1887 22.6698 27.2709 20.0574 27.2709 17.3334C27.2709 14.6094 26.1887 11.997 24.2626 10.0708C22.3364 8.14464 19.724 7.06254 17 7.06254Z" fill="black"/>
</svg>
