<svg width="37" height="37" viewBox="0 0 37 37" fill="none" xmlns="http://www.w3.org/2000/svg">
<path d="M16.4167 26.3082H25.4167V28.5582H16.4167V26.3082ZM11.9167 26.3082H14.1667V28.5582H11.9167V26.3082ZM16.4167 20.6832H25.4167V22.9332H16.4167V20.6832ZM11.9167 20.6832H14.1667V22.9332H11.9167V20.6832ZM16.4167 15.0582H25.4167V17.3082H16.4167V15.0582ZM11.9167 15.0582H14.1667V17.3082H11.9167V15.0582Z" fill="#303434"/>
<path d="M28.7917 6.05823H25.4167V4.93323C25.4167 4.33649 25.1796 3.76419 24.7577 3.34224C24.3357 2.92028 23.7634 2.68323 23.1667 2.68323H14.1667C13.5699 2.68323 12.9977 2.92028 12.5757 3.34224C12.1537 3.76419 11.9167 4.33649 11.9167 4.93323V6.05823H8.54169C7.94495 6.05823 7.37265 6.29528 6.9507 6.71724C6.52874 7.13919 6.29169 7.71149 6.29169 8.30823V31.9332C6.29169 32.53 6.52874 33.1023 6.9507 33.5242C7.37265 33.9462 7.94495 34.1832 8.54169 34.1832H28.7917C29.3884 34.1832 29.9607 33.9462 30.3827 33.5242C30.8046 33.1023 31.0417 32.53 31.0417 31.9332V8.30823C31.0417 7.71149 30.8046 7.13919 30.3827 6.71724C29.9607 6.29528 29.3884 6.05823 28.7917 6.05823ZM14.1667 4.93323H23.1667V9.43323H14.1667V4.93323ZM28.7917 31.9332H8.54169V8.30823H11.9167V11.6832H25.4167V8.30823H28.7917V31.9332Z" fill="#303434"/>
</svg>
