<svg width="30" height="31" viewBox="0 0 30 31" fill="none" xmlns="http://www.w3.org/2000/svg">
<path d="M3.73999 14.6238C3.73999 12.5838 4.24999 10.6938 5.25999 8.96381C6.26999 7.23381 7.63999 5.86381 9.36999 4.85381C11.1 3.84381 12.98 3.34381 15.01 3.34381C16.53 3.34381 17.99 3.64381 19.38 4.23381C20.77 4.82381 21.96 5.63381 22.97 6.63381C23.98 7.63381 24.78 8.83381 25.37 10.2338C25.96 11.6338 26.26 13.0838 26.26 14.6238C26.26 16.1438 25.96 17.6038 25.37 18.9938C24.78 20.3838 23.97 21.5838 22.97 22.5838C21.97 23.5838 20.77 24.3838 19.38 24.9738C17.99 25.5638 16.54 25.8638 15.01 25.8638C13.48 25.8638 12.01 25.5638 10.62 24.9738C9.22999 24.3838 8.02999 23.5738 7.01999 22.5738C6.00999 21.5738 5.21999 20.3738 4.61999 18.9938C4.01999 17.6138 3.73999 16.1538 3.73999 14.6238ZM6.21999 14.6238C6.21999 16.9938 7.07999 19.0538 8.80999 20.8038C10.54 22.5338 12.6 23.3938 15.01 23.3938C16.59 23.3938 18.06 23.0038 19.4 22.2138C20.74 21.4238 21.82 20.3638 22.61 19.0138C23.4 17.6638 23.8 16.2038 23.8 14.6238C23.8 13.0438 23.4 11.5738 22.61 10.2238C21.82 8.87381 20.75 7.80381 19.4 7.01381C18.05 6.22381 16.59 5.83381 15.01 5.83381C13.43 5.83381 11.96 6.22381 10.62 7.01381C9.27999 7.80381 8.19999 8.87381 7.39999 10.2238C6.59999 11.5738 6.21999 13.0438 6.21999 14.6238ZM14.14 14.6238V7.96381C14.14 7.73381 14.22 7.53381 14.38 7.37381C14.54 7.21381 14.74 7.13381 14.97 7.13381C15.2 7.13381 15.4 7.21381 15.56 7.37381C15.72 7.53381 15.8 7.73381 15.8 7.96381V14.1138L19.39 16.2038C19.59 16.3238 19.71 16.4938 19.77 16.7138C19.83 16.9338 19.8 17.1438 19.68 17.3338C19.52 17.6138 19.28 17.7538 18.96 17.7538C18.79 17.7538 18.65 17.7138 18.54 17.6338L14.72 15.4038C14.55 15.3538 14.41 15.2538 14.3 15.1138C14.19 14.9738 14.14 14.8138 14.14 14.6238Z" fill="black"/>
</svg>
