<svg width="36" height="37" viewBox="0 0 36 37" fill="none" xmlns="http://www.w3.org/2000/svg">
<path d="M9.924 28.9332C9.233 28.9332 8.6565 28.7022 8.1945 28.2402C7.7325 27.7782 7.501 27.2012 7.5 26.5092V23.6247C7.5 23.4117 7.5715 23.2337 7.7145 23.0907C7.8575 22.9477 8.036 22.8757 8.25 22.8747C8.464 22.8737 8.6425 22.9457 8.7855 23.0907C8.9285 23.2357 9 23.4137 9 23.6247V26.5092C9 26.7402 9.096 26.9522 9.288 27.1452C9.48 27.3382 9.6915 27.4342 9.9225 27.4332H26.0775C26.3075 27.4332 26.519 27.3372 26.712 27.1452C26.905 26.9532 27.001 26.7412 27 26.5092V23.6247C27 23.4117 27.0715 23.2337 27.2145 23.0907C27.3575 22.9477 27.536 22.8757 27.75 22.8747C27.964 22.8737 28.1425 22.9457 28.2855 23.0907C28.4285 23.2357 28.5 23.4137 28.5 23.6247V26.5092C28.5 27.2002 28.269 27.7767 27.807 28.2387C27.345 28.7007 26.768 28.9322 26.076 28.9332H9.924ZM17.25 10.8237L14.2935 13.7802C14.1475 13.9262 13.974 14.0027 13.773 14.0097C13.572 14.0167 13.389 13.9372 13.224 13.7712C13.064 13.6062 12.9825 13.4297 12.9795 13.2417C12.9765 13.0527 13.058 12.8757 13.224 12.7107L17.151 8.78073C17.283 8.65073 17.417 8.55923 17.553 8.50623C17.69 8.45323 17.839 8.42673 18 8.42673C18.161 8.42673 18.31 8.45323 18.447 8.50623C18.584 8.55923 18.718 8.65123 18.849 8.78223L22.776 12.7107C22.923 12.8567 23 13.0287 23.007 13.2267C23.013 13.4247 22.9365 13.6062 22.7775 13.7712C22.6115 13.9372 22.433 14.0217 22.242 14.0247C22.051 14.0277 21.8725 13.9462 21.7065 13.7802L18.75 10.8237V23.0487C18.75 23.2627 18.6785 23.4412 18.5355 23.5842C18.3925 23.7272 18.214 23.7987 18 23.7987C17.786 23.7987 17.6075 23.7272 17.4645 23.5842C17.3215 23.4412 17.25 23.2627 17.25 23.0487V10.8237Z" fill="#710FD8"/>
</svg>
