<svg width="30" height="31" viewBox="0 0 30 31" fill="none" xmlns="http://www.w3.org/2000/svg">
<path d="M1.25 26.5834L15 2.83337L28.75 26.5834H1.25ZM5.5625 24.0834H24.4375L15 7.83337L5.5625 24.0834ZM15 22.8334C15.3542 22.8334 15.6513 22.7134 15.8913 22.4734C16.1313 22.2334 16.2508 21.9367 16.25 21.5834C16.2492 21.23 16.1292 20.9334 15.89 20.6934C15.6508 20.4534 15.3542 20.3334 15 20.3334C14.6458 20.3334 14.3492 20.4534 14.11 20.6934C13.8708 20.9334 13.7508 21.23 13.75 21.5834C13.7492 21.9367 13.8692 22.2338 14.11 22.4746C14.3508 22.7155 14.6475 22.835 15 22.8334ZM13.75 19.0834H16.25V12.8334H13.75V19.0834Z" fill="black"/>
</svg>
